# xmcd
#
# Track frame offsets: 
#        150
#        2380
#        15867
#        31412
#        45572
#        49830
#        67700
#        78212
#        91830
#        122147
#        136652
#        162130
#
# Disc length: 2326 seconds
#
# Revision: 0
# Processed by: cddbd v1.5.2PL0 Copyright (c) Steve Scherf et al.
# Submitted via: ExactAudioCopy v0.99pb5
#
DISCID=7709140c
DTITLE=Barrelhouse - Soul Pimps 'N' Blues Pushers
DYEAR=1994
DGENRE=Blues
TTITLE0=Harmonica Solo
TTITLE1=She's Gone
TTITLE2=Haven't I Had Enuff
TTITLE3=Misery
TTITLE4=Misery (Slight Return)
TTITLE5=I Never Thought
TTITLE6=Unnamed Track
TTITLE7=Sad Man
TTITLE8=Barely Holdin' On
TTITLE9=Natural Lover Man
TTITLE10=Can't Make You (Love Me)
TTITLE11=Unnamed Track
EXTD=
EXTT0=
EXTT1=
EXTT2=
EXTT3=
EXTT4=
EXTT5=
EXTT6=
EXTT7=
EXTT8=
EXTT9=
EXTT10=
EXTT11=
PLAYORDER=
